<svg xmlns="http://www.w3.org/2000/svg" viewBox="0 0 480 320" font-family="'Noto Sans KR','Malgun Gothic',sans-serif">
  <defs><marker id="arrow-met" markerWidth="8" markerHeight="8" refX="6" refY="4" orient="auto"><path d="M0 0 L8 4 L0 8 Z" fill="#34d399"/></marker></defs>
  <rect width="480" height="320" rx="16" fill="#08130f"/>
  <rect x="24" y="22" width="432" height="276" rx="14" fill="#0c1f1a" stroke="#1d4636"/>
  <text x="34" y="50" fill="#ecfdf5" font-size="20" font-weight="700">물질대사와 에너지 전환</text>
  <text x="34" y="72" fill="#9fd9bf" font-size="11">효소는 장벽을 낮추고 ATP는 반응들을 연결한다</text>
  <g transform="translate(44 112)">
    <path d="M0 92 C48 18 93 16 146 90" fill="none" stroke="#475569" stroke-width="4"/>
    <path d="M0 92 C42 52 91 52 146 90" fill="none" stroke="#34d399" stroke-width="4"/>
    <line x1="72" y1="38" x2="72" y2="78" stroke="#fbbf24" stroke-width="2" stroke-dasharray="4 4"/>
    <text x="73" y="22" fill="#fde68a" font-size="12" font-weight="700" text-anchor="middle">활성화 에너지</text>
    <text x="74" y="122" fill="#bbf7d0" font-size="12" font-weight="700" text-anchor="middle">효소가 반응 경로를 바꿈</text>
  </g>
  <g transform="translate(228 106)" text-anchor="middle">
    <circle cx="66" cy="66" r="46" fill="#14532d" stroke="#34d399" stroke-width="3"/>
    <text x="66" y="60" fill="#ecfdf5" font-size="22" font-weight="800">ATP</text>
    <text x="66" y="80" fill="#bbf7d0" font-size="11">에너지 전달</text>
    <path d="M118 66 H168" stroke="#34d399" stroke-width="3" marker-end="url(#arrow-met)"/>
    <rect x="178" y="42" width="78" height="48" rx="10" fill="#102a24" stroke="#f59e0b"/>
    <text x="217" y="62" fill="#fde68a" font-size="11" font-weight="700">수송·합성</text>
    <text x="217" y="78" fill="#94a3b8" font-size="9">세포 활동</text>
  </g>
  <g transform="translate(78 244)" text-anchor="middle" font-size="10">
    <rect x="0" y="0" width="86" height="34" rx="8" fill="#0f3b2f" stroke="#34d399"/><text x="43" y="21" fill="#bbf7d0">기질</text>
    <path d="M92 17 H128" stroke="#34d399" stroke-width="2" marker-end="url(#arrow-met)"/>
    <rect x="136" y="0" width="86" height="34" rx="8" fill="#12372f" stroke="#86efac"/><text x="179" y="21" fill="#dcfce7">효소 반응</text>
    <path d="M228 17 H264" stroke="#34d399" stroke-width="2" marker-end="url(#arrow-met)"/>
    <rect x="272" y="0" width="86" height="34" rx="8" fill="#172033" stroke="#38bdf8"/><text x="315" y="21" fill="#bae6fd">산물</text>
  </g>
</svg>
