<svg viewBox="0 0 480 320" xmlns="http://www.w3.org/2000/svg" font-family="'Noto Sans KR','Malgun Gothic',sans-serif"><rect width="480" height="320" rx="16" fill="#0f1729"/><defs><marker id="ah-slate-ee-transistor-bjt-mosfet" markerWidth="8" markerHeight="6" refX="6" refY="3" orient="auto"><path d="M0,0 L7,3 L0,6 Z" fill="#cbd5e1"/></marker><marker id="ah-amber-ee-transistor-bjt-mosfet" markerWidth="8" markerHeight="6" refX="6" refY="3" orient="auto"><path d="M0,0 L7,3 L0,6 Z" fill="#fbbf24"/></marker><marker id="ah-cyan-ee-transistor-bjt-mosfet" markerWidth="8" markerHeight="6" refX="6" refY="3" orient="auto"><path d="M0,0 L7,3 L0,6 Z" fill="#22d3ee"/></marker></defs><text x="24" y="38" fill="#e2e8f0" font-size="19" font-weight="700">BJT와 MOSFET</text><line x1="235" y1="62" x2="235" y2="268" stroke="#334155" stroke-width="1.5" stroke-dasharray="4 5"/><g fill="none" stroke="#cbd5e1" stroke-width="2.5" stroke-linecap="round"><path d="M74 140 H112"/><path d="M112 114 V166" stroke-width="3.5"/><path d="M112 126 L150 100"/><path d="M150 100 V82"/><path d="M112 154 L150 180" marker-end="url(#ah-slate-ee-transistor-bjt-mosfet)"/><path d="M150 180 V202"/></g><path d="M170 90 V128" fill="none" stroke="#fbbf24" stroke-width="4" marker-end="url(#ah-amber-ee-transistor-bjt-mosfet)"/><path d="M78 152 H102" fill="none" stroke="#fbbf24" stroke-width="2" marker-end="url(#ah-amber-ee-transistor-bjt-mosfet)"/><text x="150" y="74" fill="#cbd5e1" font-size="11" text-anchor="middle">컬렉터 C</text><text x="150" y="218" fill="#cbd5e1" font-size="11" text-anchor="middle">이미터 E</text><text x="72" y="126" fill="#cbd5e1" font-size="11" text-anchor="middle">베이스 B</text><text x="180" y="110" fill="#fbbf24" font-size="10" text-anchor="start">큰 Ic</text><text x="90" y="168" fill="#fbbf24" font-size="9" text-anchor="middle">작은 Ib</text><text x="122" y="248" fill="#fcd34d" font-size="12" text-anchor="middle" font-weight="700">NPN BJT · 전류 제어</text><g fill="none" stroke="#cbd5e1" stroke-width="2.5" stroke-linecap="round"><path d="M272 140 H300"/><path d="M300 112 V168" stroke-width="3.5"/><path d="M314 112 V130" stroke-width="3.5"/><path d="M314 133 V147" stroke-width="3.5"/><path d="M314 150 V168" stroke-width="3.5"/><path d="M314 121 H352"/><path d="M352 121 V84"/><path d="M314 159 H352"/><path d="M352 140 V159"/><path d="M352 159 V202"/><path d="M352 140 H318" marker-end="url(#ah-slate-ee-transistor-bjt-mosfet)"/></g><path d="M274 128 H297" fill="none" stroke="#22d3ee" stroke-width="2" marker-end="url(#ah-cyan-ee-transistor-bjt-mosfet)"/><text x="352" y="78" fill="#cbd5e1" font-size="11" text-anchor="middle">드레인 D</text><text x="352" y="218" fill="#cbd5e1" font-size="11" text-anchor="middle">소스 S</text><text x="286" y="156" fill="#cbd5e1" font-size="11" text-anchor="middle">게이트 G</text><text x="314" y="186" fill="#94a3b8" font-size="9" text-anchor="middle">채널</text><text x="340" y="118" fill="#22d3ee" font-size="9" text-anchor="middle">게이트 전압 Vgs</text><text x="356" y="248" fill="#67e8f9" font-size="12" text-anchor="middle" font-weight="700">N채널 MOSFET · 전압 제어</text><text x="240" y="300" fill="#94a3b8" font-size="11" text-anchor="middle">BJT는 작은 베이스 전류(Ib)로, MOSFET은 게이트 전압(Vgs)으로 큰 전류를 제어한다</text></svg>
