<svg xmlns="http://www.w3.org/2000/svg" viewBox="0 0 480 320" font-family="'Noto Sans KR','Malgun Gothic',sans-serif">
  <rect width="480" height="320" rx="16" fill="#0f1729"/>
  <text x="24" y="40" fill="#e2e8f0" font-size="20" font-weight="700">물질의 세 가지 상태</text>
  <!-- 고체 -->
  <g>
    <rect x="28" y="70" width="128" height="170" rx="12" fill="#13203a" stroke="#22d3ee" stroke-width="1.5"/>
    <g fill="#67e8f9">
      <circle cx="58" cy="120" r="11"/><circle cx="86" cy="120" r="11"/><circle cx="114" cy="120" r="11"/>
      <circle cx="58" cy="150" r="11"/><circle cx="86" cy="150" r="11"/><circle cx="114" cy="150" r="11"/>
      <circle cx="58" cy="180" r="11"/><circle cx="86" cy="180" r="11"/><circle cx="114" cy="180" r="11"/>
    </g>
    <text x="92" y="272" fill="#e2e8f0" font-size="17" font-weight="700" text-anchor="middle">고체</text>
    <text x="92" y="294" fill="#94a3b8" font-size="11" text-anchor="middle">모양·부피 일정</text>
  </g>
  <!-- 액체 -->
  <g>
    <rect x="176" y="70" width="128" height="170" rx="12" fill="#13203a" stroke="#38bdf8" stroke-width="1.5"/>
    <path d="M176 150 q32 -16 64 0 t64 0 v90 h-128 z" fill="#1e3a5f" opacity="0.6"/>
    <g fill="#7dd3fc">
      <circle cx="206" cy="178" r="10"/><circle cx="234" cy="170" r="10"/><circle cx="262" cy="182" r="10"/>
      <circle cx="288" cy="172" r="10"/><circle cx="220" cy="206" r="10"/><circle cx="250" cy="210" r="10"/>
      <circle cx="278" cy="204" r="10"/>
    </g>
    <text x="240" y="272" fill="#e2e8f0" font-size="17" font-weight="700" text-anchor="middle">액체</text>
    <text x="240" y="294" fill="#94a3b8" font-size="11" text-anchor="middle">모양은 변함, 부피 일정</text>
  </g>
  <!-- 기체 -->
  <g>
    <rect x="324" y="70" width="128" height="170" rx="12" fill="#13203a" stroke="#a5b4fc" stroke-width="1.5"/>
    <g fill="#c7d2fe">
      <circle cx="356" cy="104" r="9"/><circle cx="420" cy="124" r="9"/><circle cx="388" cy="160" r="9"/>
      <circle cx="350" cy="196" r="9"/><circle cx="430" cy="206" r="9"/><circle cx="404" cy="92" r="9"/>
    </g>
    <text x="388" y="272" fill="#e2e8f0" font-size="17" font-weight="700" text-anchor="middle">기체</text>
    <text x="388" y="294" fill="#94a3b8" font-size="11" text-anchor="middle">모양·부피 모두 변</text>
  </g>
</svg>
